<svg width="1000" height="328" viewBox="0 0 1000 328" fill="none" xmlns="http://www.w3.org/2000/svg">
<g clip-path="url(#clip0_725_914)">
<path d="M25.8328 327.369L22.6798 320.302H5.50144L2.37018 327.369H0L12.8947 298.622H15.3083L28.203 327.369H25.8111H25.8328ZM21.81 318.258L14.0906 300.753L6.37123 318.258H21.81Z" fill="#231F20"/>
<path d="M43.7287 298.6L63.0816 322.389V298.6H65.2561V327.347H64.3863L44.9899 303.602V327.347H42.772V298.6H43.707H43.7287Z" fill="#231F20"/>
<path d="M100.7 298.6H101.94L110.725 324.89L119.64 298.6H122.032L111.877 327.434H109.485L104.919 313.952L101.309 302.58L97.6994 313.865L93.0895 327.412H90.6976L80.6298 298.579H82.9782L91.8501 324.868L100.678 298.579L100.7 298.6Z" fill="#231F20"/>
<path d="M160.042 327.369L156.889 320.302H139.71L136.579 327.369H134.187L147.082 298.622H149.495L162.39 327.369H159.998H160.042ZM156.019 318.258L148.3 300.753L140.58 318.258H156.019Z" fill="#231F20"/>
<path d="M199.9 327.369H196.986L187.049 316.475H179.199V327.369H176.981V298.622H189.636C195.877 298.622 199.052 303.101 199.095 307.581C199.139 312.256 196.051 316.366 189.767 316.366L199.922 327.369H199.9ZM179.199 314.387H189.375C194.377 314.387 196.595 311.56 196.638 307.537C196.682 304.167 194.377 300.688 189.615 300.688H179.177V314.409L179.199 314.387Z" fill="#231F20"/>
<path d="M239.649 311.865H256.502V313.887H239.649V325.216H257.806V327.347H237.475V298.6H257.306V300.688H239.649V311.865Z" fill="#231F20"/>
<path d="M274.963 298.6L294.316 322.389V298.6H296.49V327.347H295.621L276.224 303.602V327.347H274.006V298.6H274.941H274.963Z" fill="#231F20"/>
<path d="M322.367 300.623H311.973V298.644H334.979V300.623H324.585V327.369H322.367V300.623Z" fill="#231F20"/>
<path d="M352.614 311.865H369.466V313.887H352.614V325.216H370.771V327.347H350.439V298.6H370.27V300.688H352.614V311.865Z" fill="#231F20"/>
<path d="M409.911 327.369H406.997L397.06 316.475H389.21V327.369H386.992V298.622H399.648C405.888 298.622 409.063 303.101 409.107 307.581C409.15 312.256 406.062 316.366 399.778 316.366L409.933 327.369H409.911ZM389.21 314.387H399.387C404.388 314.387 406.606 311.56 406.649 307.537C406.693 304.167 404.388 300.688 399.626 300.688H389.188V314.409L389.21 314.387Z" fill="#231F20"/>
<path d="M427.112 317.41V327.347H424.894V298.6H437.506C449.987 298.6 449.987 317.41 437.506 317.41H427.112ZM427.112 300.644V315.387H437.506C447.073 315.387 447.073 300.644 437.506 300.644H427.112Z" fill="#231F20"/>
<path d="M485.996 327.369H483.083L473.145 316.475H465.295V327.369H463.077V298.622H475.733C481.974 298.622 485.148 303.101 485.192 307.581C485.235 312.256 482.148 316.366 475.863 316.366L486.018 327.369H485.996ZM465.295 314.387H475.472C480.473 314.387 482.691 311.56 482.735 307.537C482.778 304.167 480.473 300.688 475.711 300.688H465.274V314.409L465.295 314.387Z" fill="#231F20"/>
<path d="M501.022 327.369V298.622H503.196V327.369H501.022Z" fill="#231F20"/>
<path d="M539.467 304.145C537.379 300.775 534.009 300.275 530.769 300.253C527.398 300.253 522.071 301.492 522.071 306.081C522.071 309.734 526.007 310.603 530.856 311.495C536.401 312.56 542.141 313.539 542.141 319.758C542.098 326.26 535.574 327.804 530.769 327.804C526.289 327.804 521.201 325.955 518.983 321.563L520.962 320.584C522.723 324.085 527.246 325.803 530.769 325.803C534.291 325.803 539.923 324.825 539.923 319.715C539.967 315.409 535.205 314.452 530.486 313.561C525.224 312.539 519.853 311.473 519.853 306.168C519.722 300.079 526.05 298.187 530.769 298.187C534.879 298.187 538.445 298.839 541.293 303.08L539.489 304.145H539.467Z" fill="#231F20"/>
<path d="M560.277 311.865H577.129V313.887H560.277V325.216H578.433V327.347H558.102V298.6H577.933V300.688H560.277V311.865Z" fill="#231F20"/>
<path d="M635.84 304.145C633.752 300.775 630.382 300.275 627.142 300.253C623.771 300.253 618.444 301.492 618.444 306.081C618.444 309.734 622.38 310.603 627.229 311.495C632.774 312.56 638.514 313.539 638.514 319.758C638.471 326.26 631.948 327.804 627.142 327.804C622.662 327.804 617.574 325.955 615.356 321.563L617.335 320.584C619.096 324.085 623.619 325.803 627.142 325.803C630.665 325.803 636.296 324.825 636.296 319.715C636.34 315.409 631.578 314.452 626.859 313.561C621.597 312.539 616.226 311.473 616.226 306.168C616.096 300.079 622.423 298.187 627.142 298.187C631.252 298.187 634.818 298.839 637.666 303.08L635.862 304.145H635.84Z" fill="#231F20"/>
<path d="M663.238 315.866L652.018 298.644V298.6H654.605L664.347 313.713L674.132 298.6H676.72V298.644L665.456 315.866V327.369H663.238V315.866Z" fill="#231F20"/>
<path d="M710.664 304.145C708.576 300.775 705.206 300.275 701.966 300.253C698.595 300.253 693.268 301.492 693.268 306.081C693.268 309.734 697.204 310.603 702.053 311.495C707.598 312.56 713.338 313.539 713.338 319.758C713.295 326.26 706.771 327.804 701.966 327.804C697.486 327.804 692.398 325.955 690.18 321.563L692.159 320.584C693.92 324.085 698.443 325.803 701.966 325.803C705.489 325.803 711.12 324.825 711.12 319.715C711.164 315.409 706.402 314.452 701.683 313.561C696.421 312.539 691.05 311.473 691.05 306.168C690.919 300.079 697.247 298.187 701.966 298.187C706.076 298.187 709.642 298.839 712.49 303.08L710.686 304.145H710.664Z" fill="#231F20"/>
<path d="M737.475 300.623H727.081V298.644H750.087V300.623H739.693V327.369H737.475V300.623Z" fill="#231F20"/>
<path d="M767.744 311.865H784.596V313.887H767.744V325.216H785.901V327.347H765.569V298.6H785.401V300.688H767.744V311.865Z" fill="#231F20"/>
<path d="M827.172 301.819L816.169 318.671H815.43L804.34 301.819V327.369H802.122V298.622H804.753L815.756 315.387L826.65 298.622H829.369V327.369H827.194V301.819H827.172Z" fill="#231F20"/>
<path d="M865.595 304.145C863.508 300.775 860.138 300.275 856.898 300.253C853.527 300.253 848.2 301.492 848.2 306.081C848.2 309.734 852.135 310.603 856.984 311.495C862.529 312.56 868.27 313.539 868.27 319.758C868.227 326.26 861.703 327.804 856.898 327.804C852.418 327.804 847.33 325.955 845.112 321.563L847.091 320.584C848.852 324.085 853.375 325.803 856.898 325.803C860.42 325.803 866.052 324.825 866.052 319.715C866.096 315.409 861.333 314.452 856.615 313.561C851.353 312.539 845.982 311.473 845.982 306.168C845.851 300.079 852.179 298.187 856.898 298.187C861.007 298.187 864.573 298.839 867.422 303.08L865.617 304.145H865.595Z" fill="#231F20"/>
<path d="M897.756 298.6V325.259H913.934V327.347H895.538V298.6H897.756Z" fill="#231F20"/>
<path d="M937.571 300.623H927.177V298.644H950.183V300.623H939.789V327.369H937.571V300.623Z" fill="#231F20"/>
<path d="M989.78 312.647C989.954 319.954 985.257 327.347 975.189 327.347H965.448V298.6H975.189C984.931 298.6 989.606 305.58 989.78 312.647ZM967.687 300.688V325.216H975.211C983.757 325.216 987.692 318.801 987.584 312.647C987.453 306.646 983.517 300.688 975.211 300.688H967.687Z" fill="#231F20"/>
<path d="M996.869 326.129C996.869 328.26 993.629 328.26 993.629 326.129C993.629 323.998 996.869 323.998 996.869 326.129Z" fill="#231F20"/>
<path fill-rule="evenodd" clip-rule="evenodd" d="M397.517 99.5484H679.634V135.34H423.676V198.9H679.634V234.692H397.517V99.5484ZM397.517 0.196411H679.634V35.9884H397.517V0.196411Z" fill="#EB1F27"/>
<path fill-rule="evenodd" clip-rule="evenodd" d="M387.862 234.692L328.803 155.672L309.885 130.339L212.642 0.196411H175.241L0 234.692H37.4228L193.942 25.2247L272.484 130.339L299.23 166.153L350.439 234.692H387.862Z" fill="#EB1F27"/>
<path fill-rule="evenodd" clip-rule="evenodd" d="M767.244 35.9884H989.302V0.196411H767.244C748.478 0.196411 732.061 14.7437 723.711 35.9884H767.244ZM723.711 99.5484C732.061 120.815 748.456 135.34 767.244 135.34H950.618C963.338 135.34 973.841 149.714 973.841 167.11C973.841 184.505 963.338 198.879 950.618 198.879H728.56V234.671H950.618C977.777 234.671 999.978 204.271 999.978 167.088C999.978 155.628 997.869 144.799 994.129 135.319C985.779 114.052 969.383 99.5267 950.596 99.5267H723.689L723.711 99.5484Z" fill="#EB1F27"/>
<path d="M999.978 259.438H0V265.744H999.978V259.438Z" fill="#231F20"/>
</g>
<defs>
<clipPath id="clip0_725_914">
<rect width="1000" height="327.607" fill="white" transform="translate(0 0.196411)"/>
</clipPath>
</defs>
</svg>
