<svg width="50" height="50" viewBox="0 0 226 103" fill="none" xmlns="http://www.w3.org/2000/svg">
<g id="Layer_1" clip-path="url(#clip0_7083_26638)">
<path id="Vector" d="M143.754 20.9366C143.205 20.9366 142.656 20.9714 142.118 21.0294C140.189 14.9481 134.625 10.5379 128.067 10.5379C127.202 10.5379 126.361 10.6308 125.531 10.7816C121.334 4.28248 114.157 0 106.01 0C94.0283 0 84.1392 9.2729 82.7482 21.2267C81.7663 21.041 80.761 20.9366 79.7324 20.9366C70.2641 20.9366 62.5959 28.84 62.5959 38.5771C62.5959 48.3143 70.2641 56.2177 79.7324 56.2177H143.766C153.223 56.2177 160.903 48.3259 160.903 38.5771C160.903 28.8284 153.223 20.9366 143.766 20.9366H143.754ZM99.3353 36.4185L106.033 43.0685C107.05 44.0782 107.05 45.703 106.033 46.7127C105.531 47.2117 104.864 47.467 104.198 47.467C103.532 47.467 102.865 47.2117 102.363 46.7127L95.6648 40.0626C94.192 38.6003 93.3854 36.6622 93.3854 34.5964C93.3854 32.5306 94.192 30.5925 95.6648 29.1301L102.363 22.4801C103.38 21.4704 105.016 21.4704 106.033 22.4801C107.05 23.4898 107.05 25.1146 106.033 26.1243L99.3353 32.7743C98.8443 33.2617 98.5755 33.9001 98.5755 34.5964C98.5755 35.2927 98.8443 35.931 99.3353 36.4185ZM127.425 40.0742L120.727 46.7243C120.224 47.2233 119.558 47.4786 118.891 47.4786C118.225 47.4786 117.559 47.2233 117.056 46.7243C116.039 45.7146 116.039 44.0898 117.056 43.0801L123.754 36.4301C124.245 35.9426 124.514 35.2927 124.514 34.608C124.514 33.9233 124.245 33.2733 123.754 32.7859L117.056 26.1359C116.039 25.1262 116.039 23.5014 117.056 22.4917C118.073 21.482 119.71 21.482 120.727 22.4917L127.425 29.1417C128.897 30.6041 129.704 32.5422 129.704 34.608C129.704 36.6738 128.897 38.6119 127.425 40.0742Z" fill="white"/>
<g id="Group">
<path id="Vector_2" d="M26.8268 99.8432C25.9501 100.505 24.9799 101.073 23.9396 101.549C22.8992 102.025 21.7537 102.385 20.503 102.629C19.2639 102.872 17.8612 103 16.3182 103C13.9803 103 11.8178 102.594 9.81897 101.793C7.82011 100.992 6.0901 99.8896 4.64063 98.4854C3.17948 97.0927 2.04562 95.4447 1.22737 93.5414C0.409124 91.638 0 89.607 0 87.4484V87.3672C0 85.2085 0.409124 83.1775 1.22737 81.2974C2.04562 79.4173 3.17948 77.7577 4.64063 76.3302C6.0901 74.9027 7.8318 73.777 9.86573 72.9646C11.8997 72.1406 14.144 71.7344 16.5987 71.7344C18.0833 71.7344 19.4392 71.8504 20.6666 72.0825C21.894 72.3147 23.0044 72.628 24.0097 73.0342C25.015 73.4404 25.9385 73.9278 26.7801 74.5081C27.6217 75.0884 28.4166 75.7151 29.1413 76.4114L28.2763 77.3631C26.4177 79.4057 23.437 79.986 20.9355 78.8022L20.9004 78.779C19.6146 78.1755 18.1651 77.8738 16.5637 77.8738C15.2311 77.8738 13.992 78.1175 12.8582 78.6049C11.7243 79.0923 10.7424 79.7771 9.92418 80.6359C9.10593 81.4947 8.47471 82.5044 8.01883 83.6418C7.56295 84.7791 7.34085 85.9977 7.34085 87.2975V87.3788C7.34085 88.6786 7.57464 89.8972 8.01883 91.0461C8.47471 92.1951 9.10593 93.2048 9.9008 94.0752C10.7074 94.934 11.6776 95.6188 12.8114 96.1294C13.9453 96.6285 15.196 96.8838 16.5637 96.8838C18.3872 96.8838 19.9185 96.5704 21.1809 95.9321C21.1926 95.9321 21.2043 95.9205 21.216 95.9089C23.6707 94.6671 26.6281 94.9689 28.6153 96.8722L29.3868 97.6033C28.5685 98.4389 27.7152 99.1933 26.8385 99.8548L26.8268 99.8432Z" fill="white"/>
<path id="Vector_3" d="M34.3665 102.489V72.0244H41.2748V98.3576C41.2748 100.644 39.4162 102.489 37.1134 102.489H34.3665Z" fill="white"/>
<path id="Vector_4" d="M71.7836 95.6305C71.1174 97.0812 70.1939 98.3578 69.0133 99.4603C67.8327 100.551 66.4417 101.422 64.8285 102.048C63.2154 102.687 61.462 103 59.5567 103C57.6513 103 55.933 102.687 54.3316 102.072C52.7302 101.456 51.3391 100.598 50.1702 99.5184C49.0013 98.439 48.0895 97.174 47.4232 95.7117C46.757 94.261 46.418 92.6942 46.418 91.023V90.9418C46.418 89.2706 46.7453 87.7038 47.4232 86.2531C48.0895 84.8024 49.013 83.5258 50.1936 82.4233C51.3742 81.3323 52.7652 80.4619 54.3784 79.8352C55.9798 79.1969 57.7449 78.8835 59.6502 78.8835C61.5555 78.8835 63.2739 79.1969 64.8753 79.812C66.4767 80.4271 67.8677 81.2859 69.0367 82.3652C70.2056 83.4446 71.1174 84.7096 71.7836 86.1719C72.4499 87.6226 72.7889 89.1893 72.7889 90.8606V90.9534C72.7889 92.6246 72.4499 94.1914 71.7836 95.6421V95.6305ZM65.9624 90.9418C65.9624 90.083 65.8104 89.259 65.5065 88.5046C65.2026 87.7502 64.7584 87.0655 64.1856 86.4736C63.6129 85.8817 62.9232 85.4175 62.14 85.0693C61.3568 84.7212 60.4918 84.5471 59.545 84.5471C58.5397 84.5471 57.663 84.7096 56.8798 85.0461C56.1084 85.3827 55.4421 85.8353 54.9044 86.404C54.3667 86.9727 53.9458 87.6458 53.6536 88.4118C53.3614 89.1777 53.2211 89.9901 53.2211 90.849V90.9418C53.2211 91.8006 53.3731 92.6246 53.677 93.379C53.9809 94.145 54.4251 94.8181 54.9979 95.41C55.5707 96.0019 56.2486 96.4661 57.0201 96.8142C57.7916 97.1624 58.6683 97.3365 59.6385 97.3365C60.6087 97.3365 61.5205 97.174 62.3037 96.8375C63.0868 96.5009 63.7414 96.0483 64.2791 95.4796C64.8285 94.8993 65.2377 94.2378 65.5299 93.4718C65.8221 92.7059 65.9624 91.8935 65.9624 91.0346V90.9534V90.9418Z" fill="white"/>
<path id="Vector_5" d="M92.836 102.489V99.1817C92.4386 99.6807 92.0061 100.145 91.5385 100.598C91.0709 101.05 90.5449 101.445 89.9721 101.793C89.3994 102.141 88.7564 102.42 88.0668 102.617C87.3654 102.814 86.5823 102.919 85.7056 102.919C83.0638 102.919 81.0299 102.153 79.5921 100.632C78.1543 99.1005 77.4296 96.9998 77.4296 94.3189V79.3245H84.3379V92.2067C84.3379 93.7619 84.7003 94.934 85.425 95.7232C86.1498 96.5124 87.1784 96.907 88.511 96.907C89.8436 96.907 90.8956 96.5124 91.6671 95.7232C92.4386 94.934 92.8243 93.7619 92.8243 92.2067V79.3245H99.7327V98.3577C99.7327 100.644 97.8741 102.489 95.5713 102.489H92.8243H92.836Z" fill="white"/>
<path id="Vector_6" d="M123.333 102.489V99.1933C122.48 100.284 121.463 101.178 120.271 101.874C119.067 102.571 117.57 102.93 115.747 102.93C114.321 102.93 112.941 102.675 111.609 102.153C110.276 101.63 109.096 100.865 108.067 99.8432C107.038 98.8219 106.208 97.5685 105.589 96.083C104.969 94.5975 104.654 92.8915 104.654 90.9649V90.8721C104.654 88.9455 104.969 87.2395 105.589 85.754C106.208 84.2685 107.027 83.0151 108.044 81.9938C109.061 80.9725 110.23 80.2065 111.562 79.6842C112.895 79.162 114.286 78.9067 115.747 78.9067C117.594 78.9067 119.113 79.2548 120.317 79.9396C121.51 80.6243 122.527 81.4251 123.345 82.3419V72.0361H130.253V98.3693C130.253 100.656 128.395 102.501 126.092 102.501H123.345L123.333 102.489ZM123.427 90.8605C123.427 89.9088 123.263 89.0268 122.947 88.226C122.632 87.4252 122.199 86.7521 121.673 86.1834C121.147 85.6147 120.516 85.1853 119.815 84.8836C119.102 84.5818 118.33 84.431 117.524 84.431C116.717 84.431 115.934 84.5818 115.233 84.8836C114.52 85.1853 113.888 85.6263 113.351 86.1834C112.801 86.7521 112.369 87.4252 112.053 88.2028C111.737 88.992 111.574 89.874 111.574 90.8605V90.9533C111.574 91.905 111.737 92.787 112.053 93.5878C112.369 94.3886 112.801 95.0617 113.351 95.6304C113.9 96.1991 114.52 96.6285 115.233 96.9302C115.946 97.232 116.705 97.3828 117.524 97.3828C118.342 97.3828 119.102 97.232 119.815 96.9302C120.528 96.6285 121.147 96.1875 121.673 95.6304C122.199 95.0733 122.632 94.3886 122.947 93.5878C123.263 92.787 123.427 91.9166 123.427 90.9533V90.8605Z" fill="white"/>
<path id="Vector_7" d="M158.845 98.2531L157.746 95.6999H144.292L143.193 98.2531C142.095 100.818 139.558 102.489 136.741 102.489H134.239L147.881 72.0244H154.333L167.975 102.489H165.286C162.481 102.489 159.944 100.818 158.834 98.2531H158.845ZM151.025 80.0207L146.794 89.8275H155.245L151.013 80.0207H151.025Z" fill="white"/>
<path id="Vector_8" d="M172.709 102.489V72.2451H196.672V74.3225C196.672 76.4464 194.942 78.164 192.803 78.164H179.617V84.3034H194.614V90.2222H179.617V96.5705H193.025C195.164 96.5705 196.894 98.2882 196.894 100.412V102.489H172.709Z" fill="white"/>
<path id="Vector_9" d="M225.135 97.5338C224.562 98.7059 223.767 99.6808 222.739 100.47C221.71 101.259 220.494 101.863 219.068 102.28C217.654 102.698 216.076 102.907 214.346 102.907C211.926 102.907 209.542 102.513 207.204 101.723C204.866 100.934 202.75 99.7156 200.845 98.0676L201.675 97.1276C203.428 95.1314 206.304 94.5279 208.7 95.6885C208.957 95.8161 209.203 95.9322 209.46 96.0366C210.991 96.6982 212.663 97.0347 214.486 97.0347C215.936 97.0347 217.069 96.7794 217.876 96.2804C218.683 95.7813 219.08 95.0734 219.08 94.1797V94.0869C219.08 93.6575 218.998 93.2745 218.834 92.9379C218.671 92.613 218.344 92.2996 217.876 92.0095C217.408 91.7194 216.754 91.4292 215.912 91.1507C215.071 90.8605 213.995 90.5588 212.651 90.2454C211.038 89.8741 209.577 89.4563 208.279 88.992C206.97 88.5278 205.859 87.9591 204.948 87.286C204.036 86.6129 203.335 85.7657 202.832 84.756C202.329 83.7463 202.084 82.4929 202.084 80.9957V80.9145C202.084 79.5334 202.353 78.2916 202.902 77.1775C203.44 76.0634 204.2 75.1117 205.181 74.2993C206.163 73.4985 207.332 72.8718 208.688 72.4424C210.044 72.013 211.54 71.7925 213.177 71.7925C215.515 71.7925 217.654 72.129 219.606 72.7906C221.558 73.4521 223.358 74.4037 224.995 75.6456L224.363 76.516C222.739 78.7559 219.805 79.4986 217.221 78.4889C217.21 78.4889 217.198 78.4889 217.175 78.4773C215.807 77.9435 214.451 77.6765 213.083 77.6765C211.716 77.6765 210.699 77.9319 210.009 78.4309C209.331 78.9299 208.98 79.5683 208.98 80.311V80.3923C208.98 80.8797 209.074 81.3091 209.273 81.6689C209.471 82.0287 209.822 82.3536 210.348 82.6437C210.862 82.9339 211.575 83.2008 212.464 83.4677C213.364 83.7231 214.498 84.0248 215.865 84.373C217.479 84.7792 218.916 85.2318 220.179 85.7308C221.441 86.2299 222.505 86.845 223.37 87.5413C224.235 88.2493 224.89 89.0733 225.334 90.0249C225.778 90.9766 226 92.1139 226 93.437V93.5182C226 95.0154 225.719 96.35 225.147 97.5106L225.135 97.5338Z" fill="white"/>
</g>
</g>
<defs>
<clipPath id="clip0_7083_26638">
<rect width="226" height="103" fill="white"/>
</clipPath>
</defs>
</svg>
